# xmcd CD database file
#
# Track frame offsets:
#	150
#	11366
#	21121
#	33001
#	59431
#	77126
#	87729
#	107209
#	140159
#	153024
#	171706
#	187654
#
# Disc length: 2654 seconds
#
# Revision: 0
# Processed by: cddbd v1.5.2PL0 Copyright (c) Steve Scherf et al.
# Submitted via: CDex 1.81
#
DISCID=950a5c0c
DTITLE=Bill Conlon - All Ways Country
DYEAR=1900
DGENRE=Country
TTITLE0=Love Bug
TTITLE1=Kiss An Angel Good Morning
TTITLE2=Hello Darlin'
TTITLE3=Buck Owens Medley
TTITLE4=Love Me
TTITLE5=Between Me And You
TTITLE6=Murder On Music Row
TTITLE7=Merle Heggard Medley
TTITLE8=Round About Way
TTITLE9=The Dance
TTITLE10=I Don't Have Far To Fall
TTITLE11=Lucille Now's The Time
EXTD=
EXTT0=
EXTT1=
EXTT2=
EXTT3=
EXTT4=
EXTT5=
EXTT6=
EXTT7=
EXTT8=
EXTT9=
EXTT10=
EXTT11=
PLAYORDER=
